<svg width="30" height="30" viewBox="0 0 30 30" fill="none" xmlns="http://www.w3.org/2000/svg">
<circle cx="15" cy="15" r="13" stroke="#B80007" stroke-width="4"/>
<g clip-path="url(#clip0_123_1191)">
<path d="M10.03 18.1467C10.0346 18.0771 10.0371 18.0411 10.0371 18.0411C10.0371 18.0411 10.0392 18.0771 10.0434 18.1467C10.0472 18.2164 10.0547 18.3197 10.0641 18.4542C10.0859 18.7225 10.1171 19.1177 10.212 19.6063C10.2611 19.85 10.3268 20.1167 10.4267 20.3948C10.4501 20.4649 10.4796 20.5341 10.508 20.6051C10.5216 20.6412 10.5379 20.6749 10.5535 20.7098C10.5695 20.7447 10.5841 20.7792 10.6014 20.8151C10.6199 20.8517 10.6385 20.8886 10.6574 20.9259L10.6716 20.9538L10.6787 20.9679L10.6822 20.975C10.6802 20.9706 10.6837 20.9776 10.6843 20.9782C10.6941 20.9957 10.7039 21.0132 10.7138 21.0309C10.7333 21.0662 10.7549 21.1008 10.7759 21.1359C10.7982 21.1703 10.8195 21.2057 10.8434 21.2398C10.9365 21.3779 11.0431 21.5127 11.1623 21.6414C11.2228 21.705 11.2858 21.7677 11.3524 21.8277C11.4195 21.8872 11.4893 21.9449 11.5627 21.9993C11.6364 22.0533 11.7132 22.1042 11.7925 22.1521C11.8723 22.1994 11.9551 22.2423 12.0406 22.2808C12.2115 22.358 12.3941 22.4127 12.5822 22.4419C12.6058 22.4449 12.6293 22.4477 12.6531 22.4508C12.6768 22.4538 12.7007 22.4548 12.7244 22.4571C12.749 22.4597 12.77 22.4597 12.7925 22.4607L12.8261 22.4622H12.8673H12.9087H12.9191C12.9101 22.4619 12.9217 22.4618 12.9221 22.4616L12.9401 22.4604C12.964 22.4589 12.9879 22.4576 13.0119 22.4561C13.0238 22.4556 13.0359 22.4544 13.0478 22.4526L13.0838 22.4479C13.1078 22.4444 13.1319 22.4428 13.1557 22.4379C13.2035 22.4278 13.2518 22.4213 13.2991 22.4073C13.3228 22.4011 13.3467 22.3949 13.3706 22.3885C13.394 22.3808 13.4175 22.3731 13.4411 22.3654L13.4765 22.3539L13.5112 22.34C13.5343 22.3308 13.5576 22.3217 13.5809 22.3125C13.6035 22.302 13.6262 22.2914 13.649 22.2806L13.6832 22.2648C13.6945 22.2593 13.7054 22.2528 13.7164 22.247C13.7384 22.235 13.7607 22.2229 13.7829 22.2108C13.8048 22.1982 13.8258 22.1841 13.8474 22.171C13.8913 22.1456 13.9314 22.1142 13.9735 22.0856C13.9941 22.0705 14.0134 22.0539 14.0335 22.0383C14.0536 22.0226 14.0737 22.0069 14.0921 21.9892C14.111 21.9721 14.1301 21.9551 14.1491 21.938C14.1674 21.9203 14.1849 21.9014 14.2029 21.8833L14.2298 21.856C14.2385 21.8466 14.2465 21.8366 14.2549 21.8269C14.2716 21.8076 14.2882 21.7883 14.305 21.7689L14.3469 21.7135L14.3683 21.6855L14.3935 21.6475L14.4188 21.6094L14.4315 21.5903L14.4378 21.5808C14.4414 21.5755 14.4303 21.5917 14.4372 21.5808C14.45 21.5582 14.463 21.5355 14.476 21.5127C14.4896 21.4905 14.5008 21.4663 14.5126 21.4427C14.5239 21.4187 14.5371 21.3961 14.5472 21.3711C14.5916 21.2741 14.6273 21.1708 14.6608 21.065C14.6921 20.9578 14.7193 20.847 14.7413 20.7323C14.7852 20.5024 14.8122 20.2593 14.8343 20.0055C14.845 19.8768 14.8557 19.7473 14.8664 19.6172C14.8779 19.4855 14.8903 19.3508 14.9062 19.2137C14.9216 19.0768 14.9408 18.937 14.9663 18.795C14.9782 18.7242 14.9939 18.6524 15.0091 18.5806C15.0267 18.5084 15.0432 18.4362 15.0651 18.3635C15.1068 18.2183 15.1577 18.0716 15.2247 17.9276C15.233 17.9097 15.2404 17.8914 15.2494 17.8736L15.2766 17.8201C15.2955 17.7841 15.3114 17.7498 15.3352 17.7113C15.3573 17.6741 15.3806 17.635 15.4026 17.5998L15.46 17.5147L15.4673 17.5042C15.473 17.496 15.4646 17.5075 15.4821 17.483L15.5007 17.4585L15.538 17.4097C15.5625 17.3765 15.5895 17.347 15.6155 17.3156C15.6682 17.2543 15.7232 17.1961 15.7794 17.1407C15.892 17.0298 16.0092 16.9299 16.1269 16.8377C16.3628 16.6531 16.5978 16.4967 16.8122 16.3367C17.0228 16.1816 17.2238 16.0099 17.4141 15.8265C17.5098 15.7351 17.6013 15.6393 17.6917 15.5422C17.7802 15.4434 17.8679 15.3434 17.9503 15.239C18.1159 15.0309 18.2706 14.8131 18.4075 14.5845C18.5447 14.356 18.6677 14.1191 18.7719 13.8745C18.8759 13.6299 18.9629 13.3785 19.0292 13.1226C19.0951 12.8667 19.1416 12.6065 19.1661 12.3453L19.1734 12.2472L19.1771 12.1983C19.1783 12.182 19.1785 12.167 19.1793 12.1513L19.1835 12.0581C19.1838 12.0501 19.1844 12.0431 19.1844 12.0342V12.0073L19.185 11.9535L19.1853 11.8997V11.8728C19.1854 11.8698 19.1854 11.8685 19.1854 11.868C19.1854 11.868 19.1854 11.8679 19.1854 11.8677L19.185 11.8556L19.182 11.7586L19.1805 11.7101L19.177 11.6616L19.1703 11.5648C19.1477 11.3067 19.1007 11.0503 19.0336 10.7998C18.967 10.5489 18.8744 10.3055 18.7662 10.0709C18.7402 10.0116 18.7095 9.95484 18.6808 9.89697C18.6515 9.83956 18.6192 9.78381 18.5884 9.72731C18.5229 9.61656 18.4554 9.50718 18.3817 9.40278C18.2353 9.19308 18.0735 8.99561 17.894 8.819C17.7156 8.64147 17.5228 8.48148 17.3182 8.34293C17.2664 8.30969 17.2149 8.2757 17.1624 8.24382L17.0831 8.19744L17.0434 8.17432L17.0029 8.15302L16.9219 8.11026C16.895 8.09591 16.8671 8.08398 16.8397 8.07083C16.8124 8.05814 16.7844 8.04424 16.7577 8.03261L16.6788 7.99952C15.7692 7.62544 14.7608 7.67575 13.8886 7.97731C13.4506 8.12583 13.045 8.33674 12.6816 8.58361C12.4999 8.70719 12.3288 8.84075 12.1698 8.98186C12.1305 9.01782 12.0915 9.05363 12.0527 9.08913C12.015 9.126 11.9776 9.16271 11.9404 9.19927C11.9052 9.23598 11.8702 9.2724 11.8353 9.30881C11.818 9.32588 11.7994 9.34794 11.7816 9.36773C11.7636 9.38797 11.7457 9.40822 11.7277 9.42831L11.7008 9.45853L11.679 9.48467C11.6626 9.50431 11.6463 9.5241 11.6298 9.54359C11.5965 9.58242 11.5657 9.62276 11.5344 9.66264C11.5189 9.68259 11.5033 9.70253 11.4878 9.72232C11.4728 9.74257 11.458 9.76281 11.4432 9.78306C11.4136 9.8234 11.3837 9.86343 11.356 9.90468C11.2424 10.0674 11.1395 10.2327 11.0465 10.3984C10.9532 10.5642 10.8697 10.7302 10.7944 10.8949C10.7206 11.0602 10.6547 11.2238 10.5949 11.3844C10.5365 11.5454 10.4852 11.7035 10.4403 11.8579C10.3968 12.0126 10.3566 12.1626 10.324 12.3084C10.257 12.5997 10.2123 12.8719 10.1801 13.1193C10.1643 13.243 10.1519 13.3606 10.1419 13.4714C10.1374 13.5269 10.1329 13.5807 10.1286 13.6328C10.1253 13.6849 10.122 13.7352 10.1188 13.7839C10.1141 13.881 10.1094 13.9712 10.1078 14.0537C10.1047 14.1364 10.104 14.2115 10.1035 14.2788C10.1032 14.4134 10.1037 14.5169 10.106 14.5867C10.1076 14.6565 10.1085 14.6925 10.1085 14.6925C10.1085 14.6925 10.1031 14.6568 10.0927 14.5878C10.0874 14.5534 10.0807 14.5104 10.0742 14.4592C10.0677 14.408 10.0591 14.3486 10.0525 14.2814C10.023 14.0123 9.98887 13.6147 10.0035 13.1054C10.0099 12.8508 10.0306 12.5687 10.0717 12.2628C10.1112 11.9567 10.1764 11.6278 10.27 11.2809C10.4604 10.5889 10.7827 9.82491 11.3343 9.10122C11.8821 8.38508 12.6778 7.74238 13.6582 7.35349C14.1477 7.15799 14.6857 7.03198 15.2488 7.00524C15.5301 6.9918 15.8175 7.00373 16.1047 7.04664C16.1408 7.05087 16.1765 7.05827 16.2123 7.06447C16.2481 7.07096 16.284 7.07746 16.32 7.08396C16.3913 7.09952 16.4629 7.11553 16.5344 7.13306C16.5699 7.14288 16.6054 7.1527 16.6409 7.16252L16.6942 7.17733L16.7075 7.1811L16.7282 7.1879L16.7521 7.19576L16.8479 7.22703L16.8719 7.23489L16.8838 7.23882L16.8974 7.24395L16.9521 7.2645C16.9885 7.2784 17.025 7.29215 17.0615 7.30605C17.0972 7.32025 17.1304 7.33536 17.1649 7.35017C17.199 7.36527 17.2338 7.37917 17.2673 7.39549L17.3682 7.44459L17.4187 7.46922L17.4682 7.49581L17.5672 7.5496C17.6006 7.56697 17.6319 7.58767 17.6643 7.6067C17.6964 7.62619 17.7289 7.64538 17.7607 7.66548C18.0143 7.82789 18.2528 8.01569 18.4728 8.22448C18.6932 8.43313 18.8919 8.66519 19.0718 8.91191C19.1626 9.03489 19.2448 9.16407 19.3249 9.29476C19.3628 9.36123 19.4023 9.42726 19.4384 9.49509C19.4737 9.56323 19.511 9.63061 19.5434 9.70041C19.8126 10.2535 19.9872 10.86 20.0468 11.4855L20.0558 11.603L20.0602 11.6618L20.0626 11.7208L20.067 11.839L20.0676 11.8538C20.0679 11.8573 20.0678 11.8778 20.0678 11.8754V12.0369C20.0678 12.0458 20.0672 12.0569 20.067 12.0668L20.0628 12.1888C20.0619 12.2088 20.0616 12.2298 20.0602 12.2493L20.056 12.3078L20.0474 12.4247C20.019 12.7358 19.9646 13.0439 19.8877 13.3453C19.8096 13.6464 19.7067 13.9398 19.5852 14.2238C19.4637 14.508 19.3192 14.7807 19.1595 15.0424C19.0001 15.3044 18.8212 15.5531 18.6284 15.7885C18.5326 15.9066 18.4314 16.0199 18.3288 16.1316C18.2244 16.2414 18.1186 16.3496 18.0076 16.452C17.7867 16.6579 17.5547 16.8497 17.3105 17.0236C17.0712 17.194 16.8379 17.343 16.6335 17.4968C16.5312 17.5737 16.4356 17.6512 16.3496 17.7318C16.3066 17.772 16.2659 17.8131 16.2278 17.855C16.2097 17.8763 16.1893 17.8965 16.1727 17.9184L16.1467 17.9508L16.1336 17.9668C16.146 17.9492 16.1328 17.968 16.1336 17.9668L16.1262 17.9772L16.0666 18.0607L16.0272 18.1242C16.0141 18.1431 16.0005 18.1704 15.9869 18.1943L15.9663 18.231C15.9595 18.2433 15.9538 18.2566 15.9474 18.2692C15.8961 18.3702 15.8542 18.4788 15.818 18.5917C15.7989 18.6474 15.7838 18.706 15.7673 18.7637C15.753 18.823 15.7379 18.8816 15.7258 18.9423C15.7001 19.0627 15.679 19.1863 15.6607 19.3122C15.6419 19.4377 15.6261 19.5652 15.6107 19.6944C15.5944 19.8252 15.5783 19.9553 15.5622 20.0848C15.5286 20.3471 15.4886 20.6139 15.4263 20.8803C15.3949 21.0135 15.3567 21.1465 15.3121 21.2781C15.2875 21.3436 15.2653 21.4092 15.2361 21.4734C15.2219 21.5056 15.2092 21.5379 15.1937 21.5695C15.1781 21.6011 15.1626 21.6327 15.1471 21.6641C15.1322 21.6957 15.1135 21.726 15.0967 21.7568C15.0793 21.7875 15.0627 21.8183 15.0431 21.8478C15.024 21.8774 15.0051 21.907 14.9861 21.9366C14.9891 21.9324 14.974 21.9551 14.9731 21.956L14.9663 21.9652L14.9527 21.9836L14.9255 22.0205L14.8985 22.0572L14.8631 22.1006C14.8392 22.1296 14.8151 22.1586 14.7909 22.1867C14.7669 22.2119 14.7428 22.2371 14.7188 22.2624C14.7067 22.2748 14.695 22.2876 14.6826 22.2997L14.6446 22.3349C14.6193 22.3582 14.5943 22.382 14.5685 22.4044C14.5419 22.426 14.5155 22.4476 14.489 22.4692C14.463 22.4913 14.4354 22.511 14.4077 22.5307C14.3801 22.5503 14.3531 22.5706 14.325 22.5892C14.2677 22.6247 14.2124 22.6627 14.153 22.6931C14.1237 22.7088 14.0947 22.7253 14.0651 22.7402C14.035 22.7543 14.0051 22.7683 13.9752 22.7824C13.9602 22.7892 13.9454 22.7966 13.9303 22.8029L13.8845 22.8212C13.854 22.8333 13.8237 22.8455 13.7931 22.8572C13.762 22.8675 13.7312 22.8776 13.7002 22.8879L13.654 22.903L13.607 22.9155C13.5757 22.9237 13.5445 22.9318 13.5133 22.94C13.4818 22.9468 13.4502 22.9528 13.4188 22.959C13.3562 22.9729 13.2921 22.979 13.2293 22.9877C13.1979 22.9919 13.1658 22.9927 13.1343 22.9953L13.087 22.9984C13.0713 22.9997 13.0554 23.0004 13.0397 23.0001C13.0081 23.0001 12.9767 23.0001 12.9453 23.0003H12.9217L12.9039 23.0001L12.8936 22.9995L12.8523 22.9971L12.8111 22.9947L12.7626 22.9901C12.7304 22.9868 12.6969 22.9842 12.6674 22.9793C12.6372 22.9744 12.6068 22.9708 12.5769 22.9649C12.5472 22.959 12.5174 22.9533 12.4878 22.9474C12.2521 22.8945 12.0318 22.8106 11.8327 22.7041C11.7331 22.651 11.6382 22.5931 11.5483 22.5313C11.4588 22.4692 11.3743 22.4029 11.2941 22.3341C10.9753 22.0575 10.7307 21.741 10.5514 21.4192C10.5282 21.3793 10.5078 21.3383 10.4865 21.2983C10.4666 21.2575 10.4462 21.2176 10.4281 21.177C10.4189 21.1567 10.4098 21.1365 10.4007 21.1164L10.3959 21.1055L10.3929 21.0983L10.387 21.0838L10.3752 21.0548C10.3596 21.0161 10.3441 20.9777 10.3287 20.9398C10.3137 20.9005 10.2996 20.8591 10.2854 20.8195C10.2715 20.7796 10.2564 20.7401 10.2456 20.7011C10.2223 20.623 10.1983 20.5468 10.1803 20.4708C10.1028 20.1685 10.0597 19.8869 10.0359 19.6326C10.0114 19.3783 10.0043 19.1514 10.0029 18.9546C10.0008 18.7577 10.0076 18.5906 10.0126 18.4554C10.0185 18.3202 10.0251 18.2167 10.03 18.147V18.1467Z" fill="#B80007"/>
<path d="M14.2459 15.2434L14.2521 15.2616L14.2646 15.2977C14.2807 15.346 14.2967 15.3942 14.3125 15.4421L14.3245 15.4779C14.3284 15.4908 14.3322 15.5063 14.3359 15.5204C14.3435 15.5492 14.3509 15.5779 14.3585 15.6065C14.373 15.6636 14.3873 15.7204 14.4015 15.7769C14.4192 15.8856 14.4413 15.9919 14.4515 16.098C14.4718 16.3101 14.4798 16.5159 14.4657 16.713C14.4573 16.8115 14.4529 16.9081 14.4358 17.0016C14.4209 17.0953 14.4106 17.1871 14.3864 17.2749C14.3068 17.6283 14.1864 17.9364 14.0477 18.1891C14.0146 18.2529 13.9753 18.3113 13.9416 18.3689C13.9242 18.3973 13.9072 18.4253 13.8904 18.4528C13.8714 18.4789 13.8528 18.5044 13.8345 18.5295C13.7981 18.5791 13.763 18.6265 13.7297 18.672C13.6932 18.7152 13.6574 18.7554 13.624 18.7934C13.5598 18.8714 13.492 18.9323 13.4356 18.9861C13.4071 19.0127 13.382 19.0382 13.3568 19.0595C13.3308 19.0799 13.3072 19.0986 13.2861 19.1153C13.2018 19.1813 13.1567 19.2148 13.1567 19.2148C13.1567 19.2148 13.187 19.1671 13.2439 19.0775C13.2581 19.0556 13.2738 19.0309 13.2914 19.0041C13.308 18.9766 13.3243 18.9453 13.3427 18.9123C13.3784 18.8457 13.4233 18.7729 13.4613 18.6842C13.4816 18.6412 13.5029 18.5957 13.5252 18.5481C13.5443 18.4991 13.5642 18.4481 13.5849 18.3947C13.5952 18.3683 13.6056 18.3414 13.6163 18.3139C13.6253 18.2858 13.6343 18.2571 13.6437 18.2278C13.6612 18.1692 13.6833 18.1106 13.6985 18.0472C13.7132 17.9836 13.7295 17.9191 13.7463 17.853C13.76 17.7859 13.7707 17.7161 13.7836 17.6457C13.8041 17.5037 13.8229 17.3548 13.8259 17.1994C13.8315 17.1222 13.828 17.0428 13.8271 16.9629C13.8288 16.883 13.8179 16.8019 13.8115 16.72C13.807 16.6379 13.7901 16.5558 13.7792 16.4725C13.7759 16.4518 13.7738 16.4308 13.7694 16.4101C13.7647 16.3894 13.76 16.3687 13.7552 16.348C13.746 16.3066 13.7366 16.2651 13.7271 16.2231C13.7195 16.1809 13.7025 16.1406 13.6917 16.0989C13.6798 16.0575 13.6677 16.0159 13.6555 15.9739C13.641 15.9363 13.6263 15.8984 13.6115 15.8603L13.5902 15.8032C13.5864 15.7934 13.5837 15.7846 13.5792 15.7741L13.5632 15.7398C13.5419 15.694 13.5204 15.648 13.4989 15.6018L13.4832 15.5669L13.4754 15.5494L13.4734 15.545C13.4713 15.54 13.4844 15.5718 13.4779 15.5566L13.4739 15.5491L13.4418 15.489C13.3991 15.4086 13.3506 15.3287 13.3001 15.2483C13.1962 15.0884 13.082 14.9257 12.9572 14.7598C12.8946 14.6767 12.8301 14.5929 12.7636 14.5074C12.6976 14.4196 12.6313 14.3314 12.5646 14.2428C12.531 14.1972 12.4973 14.1516 12.4636 14.1058C12.4296 14.0582 12.3956 14.0106 12.3616 13.9629L12.314 13.8947L12.2873 13.8551L12.2625 13.8175C12.2292 13.7677 12.1975 13.7158 12.1655 13.6642C12.0378 13.4573 11.9242 13.2339 11.8292 12.9961C11.7351 12.7583 11.6651 12.5002 11.6338 12.2302C11.6264 12.1627 11.6217 12.0941 11.619 12.0255C11.6195 11.955 11.6168 11.8917 11.6239 11.8113C11.6266 11.7735 11.6294 11.7333 11.6331 11.6978L11.645 11.6159L11.6511 11.575L11.6544 11.5525L11.6557 11.5461L11.6586 11.5333L11.6645 11.5076L11.6882 11.4053C11.6971 11.3716 11.7027 11.3369 11.7148 11.3043L11.7487 11.2058L11.7834 11.108C11.7975 11.0767 11.812 11.0456 11.8268 11.0148L11.8712 10.9226C11.8855 10.8917 11.9047 10.864 11.9215 10.8348C11.957 10.778 11.9886 10.7181 12.0294 10.6664C12.0689 10.6138 12.1058 10.5587 12.1483 10.5099C12.1909 10.4612 12.2332 10.4126 12.2762 10.3653C12.3214 10.3209 12.3675 10.2775 12.4133 10.2347C12.4596 10.1927 12.5091 10.1556 12.5566 10.1166C12.7512 9.96702 12.9557 9.84419 13.1652 9.75007C13.2182 9.72816 13.2708 9.70656 13.3232 9.68495C13.3752 9.66274 13.4294 9.64733 13.4819 9.62875C13.5083 9.61999 13.5346 9.61122 13.5607 9.60246C13.5875 9.59521 13.6141 9.58811 13.6405 9.58085C13.6671 9.57406 13.6935 9.56711 13.7198 9.56031C13.7458 9.55351 13.7723 9.54686 13.801 9.54172C13.8569 9.53115 13.9125 9.52057 13.9676 9.51015C13.9821 9.50713 13.9934 9.50607 14.0051 9.50471L14.0403 9.50063C14.0637 9.49791 14.087 9.49534 14.1101 9.49262C14.1373 9.48945 14.1645 9.48628 14.1915 9.48326C14.2167 9.48159 14.242 9.48008 14.2671 9.47842C14.3171 9.4757 14.3668 9.47147 14.4159 9.47208C14.4648 9.47208 14.5135 9.47192 14.5615 9.47192C14.6096 9.47223 14.6568 9.47555 14.7037 9.47736C14.7975 9.47993 14.8882 9.49081 14.977 9.49942C15.3307 9.54324 15.6416 9.61983 15.9095 9.70157C16.1772 9.78376 16.4028 9.87018 16.5863 9.94542C16.77 10.0201 16.9118 10.0841 17.0083 10.1284C17.1044 10.1737 17.1558 10.1977 17.1558 10.1977C17.1558 10.1977 17.0994 10.1926 16.9935 10.1828C16.888 10.1723 16.7336 10.1559 16.5386 10.1346C16.3435 10.1142 16.1078 10.0882 15.8406 10.0705C15.5736 10.053 15.2751 10.0433 14.9592 10.0624C14.8017 10.0753 14.6396 10.0892 14.4768 10.1207C14.4357 10.1266 14.3956 10.1382 14.3545 10.1458C14.3341 10.15 14.3136 10.1542 14.293 10.1584L14.2853 10.16C14.2817 10.1606 14.3036 10.1569 14.2923 10.159L14.2881 10.1603L14.2711 10.1646L14.2373 10.1734C14.2148 10.1793 14.192 10.1852 14.1693 10.1911L14.135 10.2C14.1235 10.2029 14.1116 10.2059 14.1033 10.2094C14.0667 10.2222 14.03 10.2353 13.993 10.2483C13.8393 10.3073 13.6786 10.3772 13.5298 10.4659C13.3819 10.5573 13.2388 10.6588 13.112 10.7774C12.9851 10.8956 12.8733 11.0275 12.788 11.1704C12.7632 11.2045 12.7485 11.2431 12.7284 11.2792C12.7197 11.2976 12.7079 11.315 12.7012 11.3343L12.6792 11.3911C12.6718 11.41 12.6639 11.4288 12.6558 11.4473L12.639 11.5052L12.6212 11.5628C12.6142 11.5816 12.6134 11.602 12.6089 11.6215L12.5976 11.6805L12.5946 11.6951L12.5935 11.7004L12.5897 11.735L12.581 11.8173V11.8695C12.5784 11.8995 12.5826 11.9471 12.5834 11.9875C12.5866 12.0296 12.5899 12.0719 12.5955 12.1147C12.6204 12.2858 12.6663 12.4628 12.7379 12.6394C12.8077 12.8164 12.896 12.9931 12.9977 13.1671C13.0233 13.2105 13.0487 13.254 13.0762 13.2969L13.1149 13.3593L13.1598 13.4292C13.1883 13.4728 13.2167 13.5163 13.2453 13.5596C13.2753 13.6039 13.3053 13.648 13.3352 13.692C13.3973 13.7816 13.4591 13.8709 13.5206 13.9597C13.5819 14.0503 13.6438 14.1427 13.705 14.2359C13.8273 14.4229 13.9478 14.6155 14.0522 14.8189C14.1042 14.921 14.1542 15.0239 14.1986 15.1297C14.2096 15.1561 14.2207 15.1826 14.2317 15.2089L14.2358 15.2187C14.2306 15.2064 14.2451 15.2409 14.2442 15.2391L14.2458 15.2436L14.2459 15.2434Z" fill="#B80007"/>
<path d="M11.0633 16.9132C10.9678 16.3369 11.3576 15.7923 11.9339 15.6968C12.5102 15.6013 13.0548 15.991 13.1503 16.5673C13.2458 17.1436 12.8561 17.6883 12.2797 17.7838C11.7034 17.8793 11.1588 17.4895 11.0633 16.9132Z" fill="#B80007"/>
</g>
<defs>
<clipPath id="clip0_123_1191">
<rect width="10.0674" height="16" fill="white" transform="matrix(-1 0 0 1 20.0674 7)"/>
</clipPath>
</defs>
</svg>
